<svg width="114" height="36" viewBox="0 0 114 36" fill="none" xmlns="http://www.w3.org/2000/svg">
<path d="M53.7993 1.4L42.8073 35H34.4553L27.0633 12.248L19.4313 35H11.1273L0.0872501 1.4H8.15125L15.7353 25.016L23.6553 1.4H30.8553L38.5353 25.208L46.3593 1.4H53.7993ZM69.1803 35.576C66.5243 35.576 63.9483 35.224 61.4523 34.52C58.9883 33.784 57.0043 32.84 55.5003 31.688L58.1403 25.832C59.5803 26.888 61.2923 27.736 63.2763 28.376C65.2603 29.016 67.2443 29.336 69.2283 29.336C71.4363 29.336 73.0683 29.016 74.1243 28.376C75.1803 27.704 75.7083 26.824 75.7083 25.736C75.7083 24.936 75.3883 24.28 74.7483 23.768C74.1403 23.224 73.3403 22.792 72.3483 22.472C71.3883 22.152 70.0763 21.8 68.4123 21.416C65.8523 20.808 63.7563 20.2 62.1243 19.592C60.4923 18.984 59.0843 18.008 57.9003 16.664C56.7483 15.32 56.1723 13.528 56.1723 11.288C56.1723 9.336 56.7003 7.576 57.7563 6.008C58.8123 4.408 60.3963 3.144 62.5083 2.216C64.6523 1.288 67.2603 0.823999 70.3323 0.823999C72.4763 0.823999 74.5723 1.08 76.6203 1.592C78.6683 2.104 80.4603 2.84 81.9963 3.8L79.5963 9.704C76.4923 7.944 73.3883 7.064 70.2843 7.064C68.1083 7.064 66.4923 7.416 65.4363 8.12C64.4123 8.824 63.9003 9.752 63.9003 10.904C63.9003 12.056 64.4923 12.92 65.6763 13.496C66.8923 14.04 68.7323 14.584 71.1963 15.128C73.7563 15.736 75.8523 16.344 77.4843 16.952C79.1163 17.56 80.5083 18.52 81.6603 19.832C82.8443 21.144 83.4363 22.92 83.4363 25.16C83.4363 27.08 82.8923 28.84 81.8043 30.44C80.7483 32.008 79.1483 33.256 77.0043 34.184C74.8603 35.112 72.2523 35.576 69.1803 35.576ZM95.2409 7.736H84.4889V1.4H113.769V7.736H103.017V35H95.2409V7.736Z" fill="#D61C38"/>
</svg>
